PathFileType	4	(X/Y/Z) flx_0kg_3.trc																										
DataRate	CameraRate	NumFrames	NumMarkers	Units	OrigDataRate	OrigDataStartFrame	OrigNumFrames																					
100	100	54	9	mm	100	522	835																					
Frame#	Time	gu			centelbow			EpL			centpxt8			centijc7			ij			ts			aa			ai		
		X1	Y1	Z1	X2	Y2	Z2	X3	Y3	Z3	X4	Y4	Z4	X5	Y5	Z5	X6	Y6	Z6	X7	Y7	Z7	X8	Y8	Z8	X9	Y9	Z9  
521	5.21	-84.855	43.953	131.711	133.822	47.138	246.406	127.671	78.705	248.657	-46.816	-153.158	-8.669	-46.816	31.938	-8.669	0	0	0	-154.108	-3.576	51.798	-114.879	65.643	140.649	-137.93	-92.281	120.757
522	5.22	-85.174	44.069	132.166	133.441	44.774	247.02	127.531	76.372	249.489	-46.816	-153.158	-8.669	-46.816	31.938	-8.669	0	0	0	-154.108	-3.526	51.795	-114.839	65.079	141.104	-138.207	-92.674	120.245
523	5.23	-85.747	44.161	132.429	132.805	42.407	247.391	127.134	74.03	250.076	-46.816	-153.158	-8.669	-46.816	31.938	-8.669	0	0	0	-153.997	-3.628	51.767	-114.64	64.282	141.568	-138.408	-93.267	119.646
524	5.24	-86.102	43.717	132.772	132.354	39.3	247.845	126.951	70.951	250.747	-46.816	-153.158	-8.669	-46.816	31.938	-8.669	0	0	0	-153.808	-3.56	51.677	-114.35	63.654	141.955	-138.521	-93.683	118.98
525	5.25	-85.901	42.786	133.253	132.418	35.506	248.44	127.311	67.185	251.562	-46.816	-153.158	-8.669	-46.816	31.938	-8.669	0	0	0	-153.757	-3.208	51.568	-114.232	63.362	142.294	-138.752	-93.775	118.337
526	5.26	-85.326	42.019	133.583	132.843	31.848	248.837	128.03	63.55	252.189	-46.816	-153.158	-8.669	-46.816	31.938	-8.669	0	0	0	-153.968	-2.871	51.541	-114.423	63.099	142.695	-139.244	-93.847	117.815
527	5.27	-84.841	41.66	133.774	133.149	28.555	249.07	128.622	60.271	252.681	-46.816	-153.158	-8.669	-46.816	31.938	-8.669	0	0	0	-154.264	-2.76	51.568	-114.713	62.648	143.123	-139.784	-94.117	117.369
528	5.28	-84.698	41.181	134.237	133.037	24.891	249.608	128.809	56.613	253.519	-46.816	-153.158	-8.669	-46.816	31.938	-8.669	0	0	0	-154.417	-2.663	51.44	-114.842	62.227	143.353	-140.059	-94.377	116.77
529	5.29	-84.803	40.226	134.972	132.658	20.464	250.317	128.745	52.181	254.579	-46.816	-153.158	-8.669	-46.816	31.938	-8.669	0	0	0	-154.368	-2.311	51.038	-114.75	62.063	143.294	-140.003	-94.387	115.856
530	5.3	-84.856	39.236	135.48	132.451	16	250.468	128.844	47.699	255.115	-46.816	-153.158	-8.669	-46.816	31.938	-8.669	0	0	0	-154.2	-1.877	50.61	-114.518	61.884	143.263	-139.814	-94.378	114.813
531	5.31	-84.613	38.782	135.596	132.664	12.348	249.948	129.327	44.017	254.985	-46.816	-153.158	-8.669	-46.816	31.938	-8.669	0	0	0	-154.092	-1.775	50.528	-114.298	61.196	143.673	-139.806	-94.803	113.99
532	5.32	-84.09	38.711	135.617	133.124	9.315	249.363	130.025	40.945	254.786	-46.816	-153.158	-8.669	-46.816	31.938	-8.669	0	0	0	-154.118	-2.008	50.77	-114.155	60.04	144.46	-140.047	-95.627	113.404
533	5.33	-83.539	38.408	135.791	133.444	5.991	249.157	130.578	37.572	254.975	-46.816	-153.158	-8.669	-46.816	31.938	-8.669	0	0	0	-154.122	-2.205	50.988	-113.965	58.918	145.201	-140.266	-96.405	112.795
534	5.34	-83.218	37.614	136.2	133.348	1.911	249.374	130.731	33.433	255.613	-46.816	-153.158	-8.669	-46.816	31.938	-8.669	0	0	0	-153.965	-2.192	51.015	-113.643	58.11	145.686	-140.256	-96.902	112.07
535	5.35	-83.133	36.681	136.764	132.903	-2.48	249.811	130.539	28.97	256.499	-46.816	-153.158	-8.669	-46.816	31.938	-8.669	0	0	0	-153.687	-2.047	50.913	-113.263	57.559	145.981	-140.071	-97.188	111.314
536	5.36	-83.168	36.032	137.316	132.295	-6.553	250.215	130.168	24.811	257.372	-46.816	-153.158	-8.669	-46.816	31.938	-8.669	0	0	0	-153.411	-1.805	50.72	-112.95	57.18	146.159	-139.858	-97.331	110.526
537	5.37	-83.276	35.607	137.846	131.587	-10.332	250.575	129.683	20.936	258.198	-46.816	-153.158	-8.669	-46.816	31.938	-8.669	0	0	0	-153.232	-1.387	50.447	-112.8	56.97	146.282	-139.719	-97.301	109.637
538	5.38	-83.351	35.12	138.359	130.873	-14.182	250.882	129.21	16.99	258.943	-46.816	-153.158	-8.669	-46.816	31.938	-8.669	0	0	0	-153.107	-0.791	50.195	-112.768	56.868	146.492	-139.643	-97.134	108.697
539	5.39	-83.299	34.545	138.714	130.276	-18.084	250.965	128.878	12.998	259.413	-46.816	-153.158	-8.669	-46.816	31.938	-8.669	0	0	0	-152.908	-0.236	50.122	-112.702	56.633	146.942	-139.579	-97.049	107.871
540	5.4	-83.179	34.035	138.963	129.736	-21.739	250.95	128.614	9.266	259.719	-46.816	-153.158	-8.669	-46.816	31.938	-8.669	0	0	0	-152.637	0.089	50.252	-112.563	56.107	147.622	-139.581	-97.212	107.241
541	5.41	-83.129	33.646	139.309	129.056	-25.051	251.187	128.208	5.888	260.213	-46.816	-153.158	-8.669	-46.816	31.938	-8.669	0	0	0	-152.472	0.216	50.439	-112.501	55.384	148.335	-139.779	-97.553	106.704
542	5.42	-83.152	33.329	139.706	128.192	-28.22	251.642	127.62	2.66	260.891	-46.816	-153.158	-8.669	-46.816	31.938	-8.669	0	0	0	-152.555	0.195	50.563	-112.658	54.541	148.947	-140.214	-98.018	106.129
543	5.43	-83.003	33.082	139.966	127.427	-31.412	251.966	127.149	-0.593	261.429	-46.816	-153.158	-8.669	-46.816	31.938	-8.669	0	0	0	-152.739	0.068	50.658	-112.898	53.598	149.512	-140.664	-98.584	105.5
544	5.44	-82.558	32.935	140.13	126.922	-34.652	252.086	126.967	-3.897	261.76	-46.816	-153.158	-8.669	-46.816	31.938	-8.669	0	0	0	-152.735	0.048	50.672	-112.926	52.754	149.98	-140.782	-99.048	104.734
545	5.45	-82.113	32.791	140.413	126.325	-38.057	252.299	126.714	-7.373	262.188	-46.816	-153.158	-8.669	-46.816	31.938	-8.669	0	0	0	-152.572	0.376	50.361	-112.768	52.272	150.097	-140.582	-99.16	103.601
546	5.46	-81.909	32.495	140.838	125.337	-41.785	252.711	126.081	-11.185	262.836	-46.816	-153.158	-8.669	-46.816	31.938	-8.669	0	0	0	-152.437	1.037	49.696	-112.656	52.133	149.853	-140.329	-98.931	102.094
547	5.47	-81.739	31.97	141.182	124.224	-45.818	253.041	125.32	-15.314	263.421	-46.816	-153.158	-8.669	-46.816	31.938	-8.669	0	0	0	-152.187	1.782	48.986	-112.497	52.048	149.599	-140.024	-98.622	100.528
548	5.48	-81.265	31.246	141.338	123.385	-50.012	253.141	124.82	-19.614	263.786	-46.816	-153.158	-8.669	-46.816	31.938	-8.669	0	0	0	-151.687	2.406	48.491	-112.141	51.81	149.586	-139.618	-98.435	99.199
549	5.49	-80.423	30.401	141.552	122.852	-54.238	253.354	124.603	-23.955	264.276	-46.816	-153.158	-8.669	-46.816	31.938	-8.669	0	0	0	-151.25	2.835	48.278	-111.861	51.407	149.836	-139.422	-98.409	98.232
550	5.5	-79.576	29.512	142.128	122.24	-58.372	254.07	124.269	-28.212	265.281	-46.816	-153.158	-8.669	-46.816	31.938	-8.669	0	0	0	-151.128	3.044	48.355	-111.884	50.821	150.346	-139.638	-98.571	97.631
551	5.51	-79.195	28.66	142.913	121.162	-62.275	255.039	123.436	-32.241	266.538	-46.816	-153.158	-8.669	-46.816	31.938	-8.669	0	0	0	-151.104	3.029	48.686	-112.004	49.978	151.116	-139.987	-98.964	97.261
552	5.52	-79.207	27.897	143.376	119.85	-65.884	255.473	122.361	-35.973	267.241	-46.816	-153.158	-8.669	-46.816	31.938	-8.669	0	0	0	-151.008	2.878	49.056	-112.058	48.917	151.955	-140.201	-99.527	96.825
553	5.53	-79.182	27.213	143.275	118.799	-69.244	255.006	121.557	-39.451	267.014	-46.816	-153.158	-8.669	-46.816	31.938	-8.669	0	0	0	-150.979	2.921	49.027	-112.157	47.984	152.405	-140.299	-99.929	95.862
554	5.54	-79.085	26.642	142.954	117.917	-72.386	254.165	120.927	-42.707	266.393	-46.816	-153.158	-8.669	-46.816	31.938	-8.669	0	0	0	-151.014	3.517	48.345	-112.262	47.588	152.175	-140.214	-99.784	94.147
555	5.55	-79.088	26.258	142.893	116.829	-75.348	253.694	120.095	-45.783	266.131	-46.816	-153.158	-8.669	-46.816	31.938	-8.669	0	0	0	-150.853	4.538	47.407	-112.145	47.637	151.661	-139.815	-99.199	92.156
556	5.56	-79.113	25.964	143.361	115.487	-78.341	253.976	119.018	-48.893	266.617	-46.816	-153.158	-8.669	-46.816	31.938	-8.669	0	0	0	-150.443	5.495	46.849	-111.812	47.654	151.515	-139.276	-98.647	90.614
557	5.57	-79.093	25.531	144.333	113.946	-81.638	254.946	117.758	-52.313	267.791	-46.816	-153.158	-8.669	-46.816	31.938	-8.669	0	0	0	-150.036	6.138	46.846	-111.535	47.392	151.92	-138.987	-98.376	89.747
558	5.58	-79.237	24.859	145.358	112.118	-85.327	255.931	116.231	-56.136	268.983	-46.816	-153.158	-8.669	-46.816	31.938	-8.669	0	0	0	-149.895	6.476	47.193	-111.546	46.847	152.665	-139.207	-98.383	89.336
559	5.59	-79.632	24.052	145.946	110.079	-89.287	256.165	114.521	-60.243	269.437	-46.816	-153.158	-8.669	-46.816	31.938	-8.669	0	0	0	-150.089	6.524	47.653	-111.872	46.006	153.509	-139.901	-98.669	89.081
560	5.6	-79.972	23.333	146.144	108.224	-93.153	255.678	113.001	-64.27	269.184	-46.816	-153.158	-8.669	-46.816	31.938	-8.669	0	0	0	-150.476	6.352	48.052	-112.366	44.938	154.276	-140.76	-99.171	88.75
561	5.61	-80.041	22.798	146.227	106.791	-96.554	255.007	111.868	-67.83	268.738	-46.816	-153.158	-8.669	-46.816	31.938	-8.669	0	0	0	-150.827	6.124	48.243	-112.821	43.844	154.815	-141.415	-99.716	88.18
562	5.62	-79.966	22.252	146.278	105.601	-99.585	254.467	110.944	-70.997	268.382	-46.816	-153.158	-8.669	-46.816	31.938	-8.669	0	0	0	-150.913	6.035	48.113	-113.001	42.951	154.999	-141.591	-100.101	87.279
563	5.63	-79.846	21.508	146.346	104.4	-102.631	254.177	110.01	-74.159	268.224	-46.816	-153.158	-8.669	-46.816	31.938	-8.669	0	0	0	-150.612	6.248	47.737	-112.773	42.444	154.895	-141.2	-100.153	86.155
564	5.64	-79.691	20.701	146.521	103.001	-105.816	254.229	108.912	-77.451	268.367	-46.816	-153.158	-8.669	-46.816	31.938	-8.669	0	0	0	-150.072	6.779	47.414	-112.316	42.339	154.814	-140.508	-99.853	85.146
565	5.65	-79.599	20.057	146.929	101.235	-109.047	254.704	107.479	-80.793	268.922	-46.816	-153.158	-8.669	-46.816	31.938	-8.669	0	0	0	-149.599	7.489	47.373	-111.98	42.448	155.019	-139.964	-99.356	84.48
566	5.66	-79.587	19.639	147.668	99.177	-112.253	255.522	105.761	-84.133	269.852	-46.816	-153.158	-8.669	-46.816	31.938	-8.669	0	0	0	-149.312	8.183	47.485	-111.876	42.491	155.403	-139.774	-98.884	83.974
567	5.67	-79.505	19.411	148.495	97.226	-115.33	256.177	104.133	-87.371	270.668	-46.816	-153.158	-8.669	-46.816	31.938	-8.669	0	0	0	-149.082	8.763	47.358	-111.821	42.297	155.58	-139.796	-98.557	83.16
568	5.68	-79.313	19.204	148.928	95.653	-118.271	256.034	102.867	-90.485	270.706	-46.816	-153.158	-8.669	-46.816	31.938	-8.669	0	0	0	-148.827	9.287	46.806	-111.722	41.938	155.35	-139.851	-98.315	81.832
569	5.69	-79.237	18.732	148.841	94.263	-121.269	255.057	101.774	-93.654	269.903	-46.816	-153.158	-8.669	-46.816	31.938	-8.669	0	0	0	-148.681	9.76	46.124	-111.754	41.483	155.005	-139.975	-98.132	80.316
570	5.7	-79.527	17.896	148.619	92.644	-124.437	253.893	100.437	-96.986	268.897	-46.816	-153.158	-8.669	-46.816	31.938	-8.669	0	0	0	-148.745	10.067	45.717	-112.049	40.876	154.937	-140.222	-98.106	79.059
571	5.71	-80.13	16.905	148.6	90.64	-127.653	253.125	98.696	-100.358	268.275	-46.816	-153.158	-8.669	-46.816	31.938	-8.669	0	0	0	-148.923	10.178	45.647	-112.481	40.131	155.189	-140.495	-98.252	78.166
572	5.72	-80.732	16.111	148.719	88.434	-130.669	252.751	96.748	-103.531	268.043	-46.816	-153.158	-8.669	-46.816	31.938	-8.669	0	0	0	-149.105	10.255	45.742	-112.898	39.424	155.574	-140.733	-98.405	77.501
573	5.73	-81.019	15.753	148.836	86.33	-133.331	252.53	94.905	-106.355	267.964	-46.816	-153.158	-8.669	-46.816	31.938	-8.669	0	0	0	-149.212	10.512	45.876	-113.196	38.945	155.963	-140.936	-98.357	76.933
574	5.74	-80.854	15.725	149.004	84.514	-135.794	252.347	93.364	-108.996	267.935	-46.816	-153.158	-8.669	-46.816	31.938	-8.669	0	0	0	-149.111	11.021	45.942	-113.229	38.706	156.264	-141.009	-98.055	76.315
